<svg xmlns="http://www.w3.org/2000/svg" width="920" height="560" viewBox="0 0 920 560">
  <defs>
    <radialGradient id="glow1" cx="0.5" cy="0.5"><stop offset="0" stop-color="#b14aff" stop-opacity="0.85"/><stop offset="1" stop-color="#b14aff" stop-opacity="0"/></radialGradient>
    <radialGradient id="glow2" cx="0.5" cy="0.5"><stop offset="0" stop-color="#ff3d7f" stop-opacity="0.8"/><stop offset="1" stop-color="#ff3d7f" stop-opacity="0"/></radialGradient>
    <radialGradient id="glow3" cx="0.5" cy="0.5"><stop offset="0" stop-color="#3af0ff" stop-opacity="0.7"/><stop offset="1" stop-color="#3af0ff" stop-opacity="0"/></radialGradient>
    <filter id="soft"><feGaussianBlur stdDeviation="26"/></filter>
  </defs>
  <rect width="920" height="560" rx="14" fill="#05050c"/>
  <g filter="url(#soft)">
    <circle cx="300" cy="280" r="220" fill="url(#glow1)"/>
    <circle cx="560" cy="220" r="180" fill="url(#glow2)"/>
    <circle cx="700" cy="360" r="200" fill="url(#glow3)"/>
    <circle cx="200" cy="430" r="160" fill="url(#glow2)" opacity="0.7"/>
  </g>
  <g fill="#d6ff3a" opacity="0.95">
    <circle cx="160" cy="120" r="2.2"/><circle cx="260" cy="80" r="1.6"/><circle cx="420" cy="100" r="2"/>
    <circle cx="700" cy="90" r="1.8"/><circle cx="830" cy="150" r="2.4"/><circle cx="880" cy="420" r="2"/>
    <circle cx="90" cy="480" r="2.2"/><circle cx="500" cy="500" r="1.6"/>
  </g>
  <text x="460" y="265" font-family="Segoe UI,Arial,sans-serif" font-size="56" font-weight="900" fill="#ffffff"
    text-anchor="middle" style="letter-spacing:3px" filter="drop-shadow(0 4px 26px rgba(0,0,0,0.9))">НЕОН</text>
  <text x="460" y="320" font-family="Segoe UI,Arial,sans-serif" font-size="15" font-weight="600" fill="rgba(255,255,255,0.55)"
    text-anchor="middle">GLSL · реагирует на реальные басы твоего трека</text>
  <g font-family="Segoe UI,Arial,sans-serif" font-size="12" font-weight="700" text-anchor="middle">
    <rect x="300" y="470" width="86" height="30" rx="15" fill="rgba(255,255,255,0.08)" stroke="rgba(255,255,255,0.2)"/>
    <text x="343" y="490" fill="#bbb">🌀 Туннель</text>
    <rect x="396" y="470" width="80" height="30" rx="15" fill="rgba(177,74,255,0.35)" stroke="#d6ff3a"/>
    <text x="436" y="490" fill="#fff">💧 Неон</text>
    <rect x="486" y="470" width="86" height="30" rx="15" fill="rgba(255,255,255,0.08)" stroke="rgba(255,255,255,0.2)"/>
    <text x="529" y="490" fill="#bbb">🌌 Космос</text>
    <rect x="582" y="470" width="86" height="30" rx="15" fill="rgba(255,255,255,0.08)" stroke="rgba(255,255,255,0.2)"/>
    <text x="625" y="490" fill="#bbb">📈 Волна</text>
  </g>
  <text x="30" y="40" font-family="Segoe UI,Arial,sans-serif" font-size="14" font-weight="700" fill="#9a9ab0">🌌 ШЕЙДЕРНЫЙ ВИЗУАЛ</text>
</svg>
